<mxfile host="app.diagrams.net" modified="2023-10-04T05:02:57.939Z" agent="Mozilla/5.0 (Windows NT 10.0; Win64; x64) AppleWebKit/537.36 (KHTML, like Gecko) Chrome/117.0.0.0 Safari/537.36" etag="s7-zorN3IIFp4Pf6eRfE" version="22.0.2" type="github">
  <diagram name="第 1 页" id="bm0Y-T4pBJCMEKZAWoOl">
    <mxGraphModel dx="1221" dy="745" grid="1" gridSize="10" guides="1" tooltips="1" connect="1" arrows="1" fold="1" page="1" pageScale="1" pageWidth="827" pageHeight="1169" math="0" shadow="0">
      <root>
        <mxCell id="0" />
        <mxCell id="1" parent="0" />
        <mxCell id="QCSIHBJX6AVRzppdNrxp-2" style="edgeStyle=orthogonalEdgeStyle;rounded=0;orthogonalLoop=1;jettySize=auto;html=1;" edge="1" parent="1" source="QCSIHBJX6AVRzppdNrxp-1">
          <mxGeometry relative="1" as="geometry">
            <mxPoint x="340" y="330" as="targetPoint" />
          </mxGeometry>
        </mxCell>
        <mxCell id="QCSIHBJX6AVRzppdNrxp-1" value="" style="whiteSpace=wrap;html=1;aspect=fixed;" vertex="1" parent="1">
          <mxGeometry x="110" y="290" width="80" height="80" as="geometry" />
        </mxCell>
        <mxCell id="QCSIHBJX6AVRzppdNrxp-6" value="" style="edgeStyle=orthogonalEdgeStyle;rounded=0;orthogonalLoop=1;jettySize=auto;html=1;" edge="1" parent="1" source="QCSIHBJX6AVRzppdNrxp-3" target="QCSIHBJX6AVRzppdNrxp-5">
          <mxGeometry relative="1" as="geometry" />
        </mxCell>
        <mxCell id="QCSIHBJX6AVRzppdNrxp-3" value="" style="ellipse;shape=cloud;whiteSpace=wrap;html=1;" vertex="1" parent="1">
          <mxGeometry x="340" y="290" width="120" height="80" as="geometry" />
        </mxCell>
        <mxCell id="QCSIHBJX6AVRzppdNrxp-4" style="edgeStyle=orthogonalEdgeStyle;rounded=0;orthogonalLoop=1;jettySize=auto;html=1;entryX=0.497;entryY=0.946;entryDx=0;entryDy=0;entryPerimeter=0;" edge="1" parent="1" source="QCSIHBJX6AVRzppdNrxp-3" target="QCSIHBJX6AVRzppdNrxp-3">
          <mxGeometry relative="1" as="geometry" />
        </mxCell>
        <mxCell id="QCSIHBJX6AVRzppdNrxp-5" value="" style="ellipse;whiteSpace=wrap;html=1;" vertex="1" parent="1">
          <mxGeometry x="560" y="290" width="80" height="80" as="geometry" />
        </mxCell>
      </root>
    </mxGraphModel>
  </diagram>
</mxfile>
